#Comment line ignore any data following # character 
#Hierarchical Translation and Rotation (.htr) file 
[Header]	
#Header keywords are followed by a single value 
FileType HTR		#Single word string
DataType HTRS		#Translation followed by rotation and scale data
FileVersion 1		#integer
NumSegments 84		#integer
NumFrames 2		#integer
DataFrameRate 30		#integer, data frame rate in this file
EulerRotationOrder ZYX
CalibrationUnits mm
RotationUnits Degrees
GlobalAxisofGravity Y
BoneLengthAxis Y
ScaleFactor 1.00
[SegmentNames&Hierarchy]
#CHILD	PARENT
MASTER GLOBAL
root MASTER
chest root
L_mid_tent01 root
R_mid_tent01 root
spine01 root
Bip01_Neck chest
L_humerus chest
R_humerus chest
weapon_bone chest
Bip01_Head Bip01_Neck
eye_left_bone Bip01_Head
eye_right_bone Bip01_Head
L_forearm L_humerus
L_front_hand L_forearm
L_weapon_bone L_forearm
L_front_hand01_01 L_front_hand
L_front_hand02_01 L_front_hand
L_front_hand03_01 L_front_hand
L_front_hand01_02 L_front_hand01_01
L_front_hand02_02 L_front_hand02_01
L_front_hand03_02 L_front_hand03_01
R_forearm R_humerus
R_front_hand R_forearm
R_weapon_bone R_forearm
R_front_hand01_01 R_front_hand
R_front_hand02_01 R_front_hand
R_front_hand03_01 R_front_hand
R_front_hand01_02 R_front_hand01_01
R_front_hand02_02 R_front_hand02_01
R_front_hand03_02 R_front_hand03_01
null_rope01_connect L_mid_tent01
Rope1_Seg01 null_rope01_connect
Rope1_Seg02 Rope1_Seg01
Rope1_Seg03 Rope1_Seg02
Rope1_Seg04 Rope1_Seg03
Rope1_Seg05 Rope1_Seg04
Rope1_Seg06 Rope1_Seg05
Rope1_Seg07 Rope1_Seg06
Rope1_Seg09 Rope1_Seg07
L_mid_hand01 Rope1_Seg09
L_mid_hand02 Rope1_Seg09
L_mid_hand03 Rope1_Seg09
null_rope02_connect R_mid_tent01
Rope2_Seg01 null_rope02_connect
Rope2_Seg02 Rope2_Seg01
Rope2_Seg03 Rope2_Seg02
Rope2_Seg04 Rope2_Seg03
Rope2_Seg05 Rope2_Seg04
Rope2_Seg06 Rope2_Seg05
Rope2_Seg07 Rope2_Seg06
Rope2_Seg09 Rope2_Seg07
R_mid_hand01 Rope2_Seg09
R_mid_hand02 Rope2_Seg09
R_mid_hand03 Rope2_Seg09
spine02 spine01
spine03 spine02
pelvis spine03
null_rope03_connect pelvis
null_rope04_connect pelvis
Rope3_Seg01 null_rope03_connect
Rope3_Seg02 Rope3_Seg01
Rope3_Seg03 Rope3_Seg02
Rope3_Seg04 Rope3_Seg03
Rope3_Seg05 Rope3_Seg04
Rope3_Seg06 Rope3_Seg05
Rope3_Seg07 Rope3_Seg06
Rope3_Seg08 Rope3_Seg07
Rope3_Seg09 Rope3_Seg08
R_rear_hand01 Rope3_Seg09
R_rear_hand02 Rope3_Seg09
R_rear_hand03 Rope3_Seg09
Rope4_Seg01 null_rope04_connect
Rope4_Seg02 Rope4_Seg01
Rope4_Seg03 Rope4_Seg02
Rope4_Seg04 Rope4_Seg03
Rope4_Seg05 Rope4_Seg04
Rope4_Seg06 Rope4_Seg05
Rope4_Seg07 Rope4_Seg06
Rope4_Seg08 Rope4_Seg07
Rope4_Seg09 Rope4_Seg08
L_rear_hand01 Rope4_Seg09
L_rear_hand02 Rope4_Seg09
L_rear_hand03 Rope4_Seg09
[BasePosition]
#SegmentName Tx, Ty, Tz, Rx, Ry, Rz, BoneLength
MASTER 0.000000 0.000000 0.000000 -90.000000 0.000000 0.000000 10.000000 
root 0.000000 0.000000 0.000000 0.000000 0.000000 0.000000 10.000000 
chest 0.000000 0.000000 0.000000 0.000000 0.000000 0.000000 10.000000 
L_mid_tent01 0.000000 0.000000 0.000000 0.000000 0.000000 0.000000 10.000000 
R_mid_tent01 0.000000 0.000000 0.000000 0.000000 0.000000 0.000000 10.000000 
spine01 0.000000 0.000000 0.000000 0.000000 0.000000 0.000000 10.000000 
Bip01_Neck 0.000000 0.000000 0.000000 0.000000 0.000000 0.000000 10.000000 
L_humerus 0.000000 0.000000 0.000000 0.000000 0.000000 0.000000 10.000000 
R_humerus 0.000000 0.000000 0.000000 0.000000 0.000000 0.000000 10.000000 
weapon_bone 0.000000 0.000000 0.000000 0.000000 0.000000 0.000000 10.000000 
Bip01_Head 0.000000 0.000000 0.000000 0.000000 0.000000 0.000000 10.000000 
eye_left_bone 0.000000 0.000000 0.000000 0.000000 0.000000 0.000000 10.000000 
eye_right_bone 0.000000 0.000000 0.000000 0.000000 0.000000 0.000000 10.000000 
L_forearm 0.000000 0.000000 0.000000 0.000000 0.000000 0.000000 10.000000 
L_front_hand 0.000000 0.000000 0.000000 0.000000 0.000000 0.000000 10.000000 
L_weapon_bone 0.000000 0.000000 0.000000 0.000000 0.000000 0.000000 10.000000 
L_front_hand01_01 0.000000 0.000000 0.000000 0.000000 0.000000 0.000000 10.000000 
L_front_hand02_01 0.000000 0.000000 0.000000 0.000000 0.000000 0.000000 10.000000 
L_front_hand03_01 0.000000 0.000000 0.000000 0.000000 0.000000 0.000000 10.000000 
L_front_hand01_02 0.000000 0.000000 0.000000 0.000000 0.000000 0.000000 10.000000 
L_front_hand02_02 0.000000 0.000000 0.000000 0.000000 0.000000 0.000000 10.000000 
L_front_hand03_02 0.000000 0.000000 0.000000 0.000000 0.000000 0.000000 10.000000 
R_forearm 0.000000 0.000000 0.000000 0.000000 0.000000 0.000000 10.000000 
R_front_hand 0.000000 0.000000 0.000000 0.000000 0.000000 0.000000 10.000000 
R_weapon_bone 0.000000 0.000000 0.000000 0.000000 0.000000 0.000000 10.000000 
R_front_hand01_01 0.000000 0.000000 0.000000 0.000000 0.000000 0.000000 10.000000 
R_front_hand02_01 0.000000 0.000000 0.000000 0.000000 0.000000 0.000000 10.000000 
R_front_hand03_01 0.000000 0.000000 0.000000 0.000000 0.000000 0.000000 10.000000 
R_front_hand01_02 0.000000 0.000000 0.000000 0.000000 0.000000 0.000000 10.000000 
R_front_hand02_02 0.000000 0.000000 0.000000 0.000000 0.000000 0.000000 10.000000 
R_front_hand03_02 0.000000 0.000000 0.000000 0.000000 0.000000 0.000000 10.000000 
null_rope01_connect 0.000000 0.000000 0.000000 0.000000 0.000000 0.000000 10.000000 
Rope1_Seg01 0.000000 0.000000 0.000000 0.000000 0.000000 0.000000 10.000000 
Rope1_Seg02 0.000000 0.000000 0.000000 0.000000 0.000000 0.000000 10.000000 
Rope1_Seg03 0.000000 0.000000 0.000000 0.000000 0.000000 0.000000 10.000000 
Rope1_Seg04 0.000000 0.000000 0.000000 0.000000 0.000000 0.000000 10.000000 
Rope1_Seg05 0.000000 0.000000 0.000000 0.000000 0.000000 0.000000 10.000000 
Rope1_Seg06 0.000000 0.000000 0.000000 0.000000 0.000000 0.000000 10.000000 
Rope1_Seg07 0.000000 0.000000 0.000000 0.000000 0.000000 0.000000 10.000000 
Rope1_Seg09 0.000000 0.000000 0.000000 0.000000 0.000000 0.000000 10.000000 
L_mid_hand01 0.000000 0.000000 0.000000 0.000000 0.000000 0.000000 10.000000 
L_mid_hand02 0.000000 0.000000 0.000000 0.000000 0.000000 0.000000 10.000000 
L_mid_hand03 0.000000 0.000000 0.000000 0.000000 0.000000 0.000000 10.000000 
null_rope02_connect 0.000000 0.000000 0.000000 0.000000 0.000000 0.000000 10.000000 
Rope2_Seg01 0.000000 0.000000 0.000000 0.000000 0.000000 0.000000 10.000000 
Rope2_Seg02 0.000000 0.000000 0.000000 0.000000 0.000000 0.000000 10.000000 
Rope2_Seg03 0.000000 0.000000 0.000000 0.000000 0.000000 0.000000 10.000000 
Rope2_Seg04 0.000000 0.000000 0.000000 0.000000 0.000000 0.000000 10.000000 
Rope2_Seg05 0.000000 0.000000 0.000000 0.000000 0.000000 0.000000 10.000000 
Rope2_Seg06 0.000000 0.000000 0.000000 0.000000 0.000000 0.000000 10.000000 
Rope2_Seg07 0.000000 0.000000 0.000000 0.000000 0.000000 0.000000 10.000000 
Rope2_Seg09 0.000000 0.000000 0.000000 0.000000 0.000000 0.000000 10.000000 
R_mid_hand01 0.000000 0.000000 0.000000 0.000000 0.000000 0.000000 10.000000 
R_mid_hand02 0.000000 0.000000 0.000000 0.000000 0.000000 0.000000 10.000000 
R_mid_hand03 0.000000 0.000000 0.000000 0.000000 0.000000 0.000000 10.000000 
spine02 0.000000 0.000000 0.000000 0.000000 0.000000 0.000000 10.000000 
spine03 0.000000 0.000000 0.000000 0.000000 0.000000 0.000000 10.000000 
pelvis 0.000000 0.000000 0.000000 0.000000 0.000000 0.000000 10.000000 
null_rope03_connect 0.000000 0.000000 0.000000 0.000000 0.000000 0.000000 10.000000 
null_rope04_connect 0.000000 0.000000 0.000000 0.000000 0.000000 0.000000 10.000000 
Rope3_Seg01 0.000000 0.000000 0.000000 0.000000 0.000000 0.000000 10.000000 
Rope3_Seg02 0.000000 0.000000 0.000000 0.000000 0.000000 0.000000 10.000000 
Rope3_Seg03 0.000000 0.000000 0.000000 0.000000 0.000000 0.000000 10.000000 
Rope3_Seg04 0.000000 0.000000 0.000000 0.000000 0.000000 0.000000 10.000000 
Rope3_Seg05 0.000000 0.000000 0.000000 0.000000 0.000000 0.000000 10.000000 
Rope3_Seg06 0.000000 0.000000 0.000000 0.000000 0.000000 0.000000 10.000000 
Rope3_Seg07 0.000000 0.000000 0.000000 0.000000 0.000000 0.000000 10.000000 
Rope3_Seg08 0.000000 0.000000 0.000000 0.000000 0.000000 0.000000 10.000000 
Rope3_Seg09 0.000000 0.000000 0.000000 0.000000 0.000000 0.000000 10.000000 
R_rear_hand01 0.000000 0.000000 0.000000 0.000000 0.000000 0.000000 10.000000 
R_rear_hand02 0.000000 0.000000 0.000000 0.000000 0.000000 0.000000 10.000000 
R_rear_hand03 0.000000 0.000000 0.000000 0.000000 0.000000 0.000000 10.000000 
Rope4_Seg01 0.000000 0.000000 0.000000 0.000000 0.000000 0.000000 10.000000 
Rope4_Seg02 0.000000 0.000000 0.000000 0.000000 0.000000 0.000000 10.000000 
Rope4_Seg03 0.000000 0.000000 0.000000 0.000000 0.000000 0.000000 10.000000 
Rope4_Seg04 0.000000 0.000000 0.000000 0.000000 0.000000 0.000000 10.000000 
Rope4_Seg05 0.000000 0.000000 0.000000 0.000000 0.000000 0.000000 10.000000 
Rope4_Seg06 0.000000 0.000000 0.000000 0.000000 0.000000 0.000000 10.000000 
Rope4_Seg07 0.000000 0.000000 0.000000 0.000000 0.000000 0.000000 10.000000 
Rope4_Seg08 0.000000 0.000000 0.000000 0.000000 0.000000 0.000000 10.000000 
Rope4_Seg09 0.000000 0.000000 0.000000 0.000000 0.000000 0.000000 10.000000 
L_rear_hand01 0.000000 0.000000 0.000000 0.000000 0.000000 0.000000 10.000000 
L_rear_hand02 0.000000 0.000000 0.000000 0.000000 0.000000 0.000000 10.000000 
L_rear_hand03 0.000000 0.000000 0.000000 0.000000 0.000000 0.000000 10.000000 
#Beginning of Data. Separated by tabs
#Fr	Tx	Ty	Tz	Rx	Ry	Rz	SF
[MASTER]
13 0.000000 0.000000 0.000000 0.001660 0.001660 0.001660 0.000000
14 0.000000 0.000000 0.000000 0.001660 0.001660 0.001660 0.000000
[root]
13 -27.884632 -56.740528 1501.395752 -78.216667 -39.024372 -87.973343 1502.726196
14 -27.884632 -56.740528 1501.395752 -78.216667 -39.024372 -87.973343 1502.726196
[chest]
13 -84.512650 -34.090519 0.000000 -2.594532 -0.201363 179.701126 91.129311
14 -84.512650 -34.090519 0.000000 -2.594532 -0.201363 179.701126 91.129311
[L_mid_tent01]
13 27.299511 22.177458 -249.918259 3.862628 36.229202 81.347610 252.381134
14 27.299511 22.177458 -249.918259 3.862628 36.229202 81.347610 252.381134
[R_mid_tent01]
13 23.228794 24.509907 226.238495 160.432037 -47.061241 87.899765 228.744751
14 23.228794 24.509907 226.238495 160.432037 -47.061241 87.899765 228.744751
[spine01]
13 -0.361383 -0.195265 0.000000 0.002062 0.001122 32.879829 0.410763
14 -0.361383 -0.195265 0.000000 0.002062 0.001122 32.879829 0.410763
[Bip01_Neck]
13 165.484543 71.581718 0.000119 176.643677 -1.657967 43.431911 180.302734
14 165.484543 71.581718 0.000119 176.643677 -1.657967 43.431911 180.302734
[L_humerus]
13 -13.983130 -135.272980 -120.471481 156.317398 70.210068 -112.010254 181.680161
14 -13.983130 -135.272980 -120.471481 156.317398 70.210068 -112.010254 181.680161
[R_humerus]
13 -13.983309 -135.273102 125.287651 -172.382263 -66.903831 -92.553993 184.909012
14 -13.983309 -135.273102 125.287651 -172.382263 -66.903831 -92.553993 184.909012
[weapon_bone]
13 235.964890 -300.705902 0.000000 0.000000 -89.951546 -128.212341 382.234833
14 235.964890 -300.705902 0.000000 0.000000 -89.951546 -128.212341 382.234833
[Bip01_Head]
13 213.372025 185.916519 9.179944 9.067745 3.281933 -43.888077 283.155151
14 213.372025 185.916519 9.179947 9.067745 3.281933 -43.888077 283.155151
[eye_left_bone]
13 -24.626970 125.451866 -64.772606 0.000000 -90.000000 -99.840431 143.318359
14 -24.626970 125.451866 -64.772606 0.000000 -90.000000 -99.840431 143.318359
[eye_right_bone]
13 -24.626970 125.451866 64.327362 0.000000 -89.965736 80.156380 143.117676
14 -24.626970 125.451866 64.327362 0.000000 -89.965736 80.156380 143.117676
[L_forearm]
13 322.776093 0.000000 -0.000119 0.000119 -0.002344 -95.807457 322.776093
14 322.776093 0.000000 -0.000119 0.000119 -0.002344 -95.807457 322.776093
[L_front_hand]
13 241.149185 -0.042021 -3.300071 -178.667953 -1.835447 -27.422350 241.171753
14 241.149185 -0.042021 -3.300071 -178.667953 -1.835447 -27.422350 241.171753
[L_weapon_bone]
13 156.183838 0.000000 0.000000 0.000014 0.000007 0.000001 156.183838
14 156.183838 0.000000 0.000000 0.000014 0.000007 0.000001 156.183838
[L_front_hand01_01]
13 86.095154 20.947098 -0.655860 -0.366594 -0.477154 75.385574 88.609184
14 86.095154 20.947098 -0.655860 -0.366594 -0.477154 75.385574 88.609184
[L_front_hand02_01]
13 86.935165 -11.437475 24.513514 154.399796 -59.883835 -61.369587 91.046425
14 86.935165 -11.437475 24.513514 154.399796 -59.883835 -61.369587 91.046425
[L_front_hand03_01]
13 86.637497 -14.123976 -20.424902 -153.913849 58.118122 -62.702866 90.126129
14 86.637497 -14.123976 -20.424902 -153.913849 58.118122 -62.702866 90.126129
[L_front_hand01_02]
13 71.020905 -0.000179 0.000030 0.000334 -0.002323 -106.379684 71.020905
14 71.020905 -0.000179 0.000030 0.000334 -0.002323 -106.379684 71.020905
[L_front_hand02_02]
13 71.020927 -0.000119 0.000060 0.000334 -0.002323 -106.379684 71.020927
14 71.020927 -0.000119 0.000060 0.000334 -0.002323 -106.379684 71.020927
[L_front_hand03_02]
13 71.020905 -0.000060 0.000060 0.000334 -0.002323 -106.379684 71.020905
14 71.020905 -0.000060 0.000060 0.000334 -0.002323 -106.379684 71.020905
[R_forearm]
13 322.776428 -0.000060 0.000030 0.209504 0.012586 -94.339050 322.776428
14 322.776428 -0.000060 0.000030 0.209504 0.012586 -94.339050 322.776428
[R_front_hand]
13 238.847015 -0.006795 2.210259 -2.635298 -10.645461 -26.312506 238.857239
14 238.847015 -0.006795 2.210259 -2.635298 -10.645461 -26.312506 238.857239
[R_weapon_bone]
13 155.664093 0.002503 -0.000030 0.003487 0.001180 -90.988930 155.664078
14 155.664093 0.002503 -0.000030 0.003487 0.001180 -90.988930 155.664078
[R_front_hand01_01]
13 87.624611 14.231146 22.918642 -154.633499 -59.950619 61.746044 91.683487
14 87.624611 14.231146 22.918642 -154.633499 -59.950619 61.746044 91.683487
[R_front_hand02_01]
13 89.356956 14.367283 -19.491137 154.602661 58.302849 63.744389 92.579636
14 89.356956 14.367283 -19.491137 154.602661 58.302849 63.744389 92.579636
[R_front_hand03_01]
13 87.286232 -22.307278 -0.143439 0.162155 -0.423168 -75.767921 90.091743
14 87.286232 -22.307278 -0.143439 0.162155 -0.423168 -75.767921 90.091743
[R_front_hand01_02]
13 71.020905 0.000060 0.000119 0.002323 -0.000334 106.381714 71.020905
14 71.020905 0.000060 0.000119 0.002323 -0.000334 106.381714 71.020905
[R_front_hand02_02]
13 71.020844 -0.000030 -0.000119 0.002323 -0.000334 106.381714 71.020836
14 71.020844 -0.000030 -0.000119 0.002323 -0.000334 106.381714 71.020836
[R_front_hand03_02]
13 71.020905 0.000000 0.000030 0.002323 -0.000334 106.381714 71.020905
14 71.020905 0.000000 0.000030 0.002323 -0.000334 106.381714 71.020905
[null_rope01_connect]
13 328.732483 0.000000 -0.000238 -121.867149 -66.548218 170.046249 328.732483
14 328.732483 0.000000 -0.000238 -121.867149 -66.548218 170.046249 328.732483
[Rope1_Seg01]
13 0.000000 0.000000 0.000000 106.137489 -1.306556 -168.542725 0.000000
14 0.000000 0.000000 0.000000 105.901978 -1.624792 -168.456055 0.000000
[Rope1_Seg02]
13 139.999863 -0.000179 0.000000 14.057185 -15.500264 -10.890611 139.999863
14 139.999863 -0.000179 0.000000 14.121980 -15.484293 -11.034197 139.999863
[Rope1_Seg03]
13 139.999924 0.000060 -0.000060 19.698822 -28.074987 -17.228542 139.999924
14 139.999924 0.000060 -0.000060 19.996159 -28.252718 -17.577080 139.999924
[Rope1_Seg04]
13 139.999924 -0.000060 -0.000119 4.437894 -27.135637 -1.385458 139.999924
14 139.999924 -0.000060 -0.000119 4.513087 -27.119257 -1.550586 139.999924
[Rope1_Seg05]
13 139.999832 0.000119 -0.000060 -2.593864 -16.161415 15.942150 139.999832
14 139.999832 0.000119 -0.000060 -2.500211 -15.831098 15.935043 139.999832
[Rope1_Seg06]
13 139.999954 0.000119 -0.000060 -1.563403 -8.997746 7.308579 139.999954
14 139.999954 0.000119 -0.000060 -1.477597 -8.907722 7.429395 139.999954
[Rope1_Seg07]
13 139.999985 0.000060 0.000000 -1.262417 -5.030456 3.295341 139.999985
14 139.999985 0.000060 0.000000 -1.209960 -5.006606 3.357123 139.999985
[Rope1_Seg09]
13 121.602913 0.000119 -0.000089 -89.793175 -1.359789 0.847147 121.602913
14 121.602913 0.000119 -0.000089 -89.793175 -1.359789 0.847147 121.602913
[L_mid_hand01]
13 103.859421 1.038730 8.195221 130.544373 -67.584534 -38.866943 104.187431
14 103.859421 1.038730 8.195221 130.544373 -67.584534 -38.866943 104.187431
[L_mid_hand02]
13 105.572853 -4.139662 -10.864139 -168.923172 43.409309 -73.498886 106.211075
14 105.572853 -4.139662 -10.864139 -168.923172 43.409309 -73.498886 106.211075
[L_mid_hand03]
13 104.641464 17.579376 -3.913581 -6.012627 17.808174 74.893669 106.179977
14 104.641464 17.579376 -3.913581 -6.012627 17.808174 74.893669 106.179977
[null_rope02_connect]
13 328.732849 0.000179 -0.000119 -116.101486 27.529917 12.015828 328.732849
14 328.732849 0.000179 -0.000119 -116.101486 27.529917 12.015827 328.732849
[Rope2_Seg01]
13 -0.000038 0.000153 0.000000 -38.651196 0.903541 -2.600403 0.000157
14 -0.000038 0.000153 0.000000 -39.178970 1.444593 -2.570429 0.000157
[Rope2_Seg02]
13 139.999741 -0.000060 -0.000119 -15.601476 5.587821 15.563324 139.999756
14 139.999741 -0.000060 -0.000119 -15.587738 5.383804 15.560058 139.999756
[Rope2_Seg03]
13 140.000107 0.000030 0.000000 -14.706460 0.572626 21.787453 140.000107
14 140.000107 0.000030 0.000000 -14.526122 0.298690 21.585083 140.000107
[Rope2_Seg04]
13 139.999802 0.000000 -0.000060 -7.424535 -4.541735 17.853962 139.999802
14 139.999802 0.000000 -0.000060 -7.306529 -4.628215 17.628357 139.999802
[Rope2_Seg05]
13 139.999985 -0.000060 0.000119 -4.298103 -0.515470 16.624287 139.999985
14 139.999985 -0.000060 0.000119 -4.388926 -0.553531 17.122015 139.999985
[Rope2_Seg06]
13 139.999893 -0.000030 -0.000119 -2.467109 -0.184428 20.078541 139.999893
14 139.999893 -0.000030 -0.000119 -2.405336 -0.379121 20.675451 139.999893
[Rope2_Seg07]
13 139.999893 0.000060 -0.000060 -0.129676 -1.691510 13.891948 139.999893
14 139.999893 0.000060 -0.000060 0.019283 -1.764677 13.994509 139.999893
[Rope2_Seg09]
13 121.338966 0.000089 -0.000060 33.793236 -1.359788 -0.847141 121.338966
14 121.338966 0.000089 -0.000060 33.793236 -1.359788 -0.847141 121.338966
[R_mid_hand01]
13 104.680779 11.144459 -10.335981 -16.212063 45.237247 70.462852 105.778534
14 104.680779 11.144459 -10.335981 -16.212063 45.237247 70.462852 105.778534
[R_mid_hand02]
13 104.070427 2.443552 8.231699 49.067368 -67.749771 39.286453 104.424065
14 104.070427 2.443552 8.231699 49.067368 -67.749771 39.286453 104.424065
[R_mid_hand03]
13 106.028137 -11.221827 -5.996406 -177.101105 15.551026 -76.585571 106.788818
14 106.028137 -11.221827 -5.996406 -177.101105 15.551026 -76.585571 106.788818
[spine02]
13 129.756927 0.001550 0.000119 -1.023899 -3.926965 6.770993 129.756927
14 129.756927 0.001550 0.000119 -1.023899 -3.926965 6.770993 129.756927
[spine03]
13 78.613846 0.087372 -4.898873 1.040681 4.146420 4.212376 78.766380
14 78.613846 0.087372 -4.898873 1.040680 4.146419 4.212375 78.766380
[pelvis]
13 169.435242 0.051022 0.000000 0.019518 -0.190233 -10.721436 169.435257
14 169.435242 0.051022 0.000000 0.019518 -0.190233 -10.721436 169.435257
[null_rope03_connect]
13 -1.257226 -2.466202 137.391083 46.458321 -77.110146 49.356079 137.418976
14 -1.257226 -2.466202 137.391083 46.458321 -77.110146 49.356079 137.418976
[null_rope04_connect]
13 -1.259640 -2.480268 -137.844437 46.458321 -77.110146 49.356079 137.872513
14 -1.259640 -2.480268 -137.844437 46.458321 -77.110146 49.356079 137.872513
[Rope3_Seg01]
13 0.000000 0.000000 0.000000 -148.418427 -79.230499 -72.916481 0.000000
14 0.000000 0.000000 0.000000 -148.380539 -79.290764 -72.974800 0.000000
[Rope3_Seg02]
13 139.999924 -0.000119 0.000060 -0.082331 -5.601280 -11.571021 139.999924
14 139.999924 -0.000119 0.000060 -0.049907 -5.647532 -11.528024 139.999924
[Rope3_Seg03]
13 139.999924 -0.000119 0.000119 -0.682063 -7.206826 -14.689199 139.999924
14 139.999924 -0.000119 0.000119 -0.599784 -7.321647 -14.729641 139.999924
[Rope3_Seg04]
13 139.999924 0.000119 0.000000 3.635895 -10.016208 -12.799253 139.999924
14 139.999924 0.000119 0.000000 3.874991 -10.212116 -12.924614 139.999924
[Rope3_Seg05]
13 139.999924 -0.000238 0.000060 -11.606668 -3.365071 -11.983889 139.999924
14 139.999924 -0.000238 0.000060 -11.783768 -3.474375 -12.079724 139.999924
[Rope3_Seg06]
13 139.999893 -0.000119 -0.000060 -86.472755 9.915871 -25.095913 139.999893
14 139.999893 -0.000119 -0.000060 -87.899406 10.013013 -25.298412 139.999893
[Rope3_Seg07]
13 139.999771 0.000060 -0.000119 -18.920055 29.869080 9.273356 139.999771
14 139.999771 0.000060 -0.000119 -17.894707 29.570448 9.991882 139.999771
[Rope3_Seg08]
13 139.999985 -0.000060 0.000000 -1.873210 12.260623 8.489796 139.999985
14 139.999985 -0.000060 0.000000 -1.758738 12.118388 8.537926 139.999985
[Rope3_Seg09]
13 90.185997 -0.000179 -0.000060 89.793228 -1.359877 -0.847183 90.185997
14 90.185997 -0.000179 -0.000060 89.793228 -1.359877 -0.847183 90.185997
[R_rear_hand01]
13 103.366196 -6.073594 -10.757982 -177.714203 24.565960 -73.910950 104.101845
14 103.366196 -6.073594 -10.757982 -177.714203 24.565960 -73.910950 104.101845
[R_rear_hand02]
13 100.509819 12.039542 -7.992327 -12.874829 36.868488 72.167213 101.543350
14 100.509819 12.039542 -7.992327 -12.874829 36.868488 72.167213 101.543350
[R_rear_hand03]
13 101.539970 5.215704 5.435467 71.484581 -71.816628 21.513813 101.819031
14 101.539970 5.215704 5.435467 71.484581 -71.816628 21.513813 101.819031
[Rope4_Seg01]
13 0.000014 -0.000114 -0.000153 67.719040 -40.467690 -126.052208 0.000191
14 0.000013 -0.000114 -0.000153 67.730484 -40.433437 -126.090637 0.000191
[Rope4_Seg02]
13 139.999985 0.000060 0.000119 2.560674 -13.143294 -3.017480 139.999985
14 139.999985 0.000060 0.000119 2.560449 -13.140836 -3.016147 139.999985
[Rope4_Seg03]
13 139.999924 0.000000 -0.000238 10.342406 -22.058506 -4.437595 139.999924
14 139.999924 0.000000 -0.000238 10.356791 -22.039959 -4.413333 139.999924
[Rope4_Seg04]
13 139.999985 0.000000 0.000119 59.606754 -23.838022 -1.583546 139.999985
14 139.999985 0.000000 0.000119 59.659729 -23.851610 -1.498224 139.999985
[Rope4_Seg05]
13 139.999802 -0.000060 -0.000119 65.623123 -9.445058 17.713150 139.999802
14 139.999802 -0.000060 -0.000119 65.488319 -9.470150 17.730925 139.999802
[Rope4_Seg06]
13 139.999924 0.000000 0.000060 15.947271 19.477194 22.379328 139.999924
14 139.999924 0.000000 0.000060 16.058979 19.196476 22.347532 139.999924
[Rope4_Seg07]
13 139.999802 0.000000 0.000000 4.114300 16.381512 12.359350 139.999802
14 139.999802 0.000000 0.000000 4.125509 16.200426 12.301440 139.999802
[Rope4_Seg08]
13 139.999924 0.000000 0.000119 -0.649655 7.761410 5.318212 139.999924
14 139.999924 0.000000 0.000119 -0.637461 7.716098 5.309215 139.999924
[Rope4_Seg09]
13 90.185791 0.000060 0.000060 -135.617828 2.228885 0.850567 90.185791
14 90.185791 0.000060 0.000060 -135.617828 2.228885 0.850567 90.185791
[L_rear_hand01]
13 101.696655 -8.392275 -7.654577 -12.874829 -36.868488 107.832764 102.329041
14 101.696655 -8.392275 -7.654577 -12.874829 -36.868488 107.832764 102.329041
[L_rear_hand02]
13 102.726799 -1.568258 5.773216 71.484581 71.816628 158.486160 102.900848
14 102.726799 -1.568258 5.773216 71.484581 71.816628 158.486160 102.900848
[L_rear_hand03]
13 104.552910 9.721220 -10.420293 -177.714203 -24.565960 -106.089035 105.519653
14 104.552910 9.721220 -10.420293 -177.714203 -24.565960 -106.089035 105.519653
